<?xml version="1.0" encoding="UTF-8"?>
<svg width="20px" height="20px" viewBox="0 0 20 20" version="1.1" xmlns="http://www.w3.org/2000/svg" xmlns:xlink="http://www.w3.org/1999/xlink">
    <!-- Generator: sketchtool 57.1 (101010) - https://sketch.com -->
    <title>7D42574E-2CD3-4A39-B143-6AAA12FBED4B</title>
    <desc>Created with sketchtool.</desc>
    <g id="Desktop-&amp;-Mobile" stroke="none" stroke-width="1" fill="none" fill-rule="evenodd">
        <g id="Icons-Kit" transform="translate(-399.000000, -178.000000)" fill="#FFFFFF">
            <g id="history" transform="translate(399.000000, 178.000000)">
                <path d="M16,0 C18.209139,-4.05812251e-16 20,1.790861 20,4 L20,16 C20,18.209139 18.209139,20 16,20 L4,20 C1.790861,20 2.705415e-16,18.209139 0,16 L0,4 C-2.705415e-16,1.790861 1.790861,4.05812251e-16 4,0 L16,0 Z M5,5 C4.44771525,5 4,5.44771525 4,6 L4,14 C4,14.5522847 4.44771525,15 5,15 C5.55228475,15 6,14.5522847 6,14 L6,6 C6,5.44771525 5.55228475,5 5,5 Z M15.5,5.40212382 C15.4062901,5.40212382 15.3144663,5.42845854 15.2350005,5.47812467 L8.67839864,9.57600085 C8.44423038,9.72235601 8.3730438,10.0308312 8.51939896,10.2649995 C8.55963931,10.329384 8.61401408,10.3837588 8.67839864,10.4239992 L15.2350005,14.5218753 C15.4691688,14.6682305 15.777644,14.5970439 15.9239992,14.3628756 C15.9736653,14.2834098 16,14.191586 16,14.0978762 L16,5.90212382 C16,5.62598145 15.7761424,5.40212382 15.5,5.40212382 Z" id="Combined-Shape"></path>
            </g>
        </g>
    </g>
</svg>