<?xml version="1.0" encoding="UTF-8"?>
<svg width="20px" height="20px" viewBox="0 0 20 20" version="1.1" xmlns="http://www.w3.org/2000/svg" xmlns:xlink="http://www.w3.org/1999/xlink">
    <!-- Generator: sketchtool 57.1 (101010) - https://sketch.com -->
    <title>2F2D2C2E-5EE8-4C8A-9D85-22ACE2610D34</title>
    <desc>Created with sketchtool.</desc>
    <g id="Desktop-&amp;-Mobile" stroke="none" stroke-width="1" fill="none" fill-rule="evenodd">
        <g id="Icons-Kit" transform="translate(-443.000000, -178.000000)" fill="#FFFFFF">
            <g id="setting" transform="translate(443.000000, 178.000000)">
                <path d="M16,0 C18.209139,-4.05812251e-16 20,1.790861 20,4 L20,16 C20,18.209139 18.209139,20 16,20 L4,20 C1.790861,20 2.705415e-16,18.209139 0,16 L0,4 C-2.705415e-16,1.790861 1.790861,4.05812251e-16 4,0 L16,0 Z M9,13 C8.48716416,13 8.06449284,13.3860402 8.00672773,13.8833789 L8,14 L8,16 C8,16.5522847 8.44771525,17 9,17 C9.51283584,17 9.93550716,16.6139598 9.99327227,16.1166211 L10,16 L17,16 C17.5522847,16 18,15.5522847 18,15 C18,14.4477153 17.5522847,14 17,14 L10,14 L9.99327227,13.8833789 C9.93550716,13.3860402 9.51283584,13 9,13 Z M5,14 L3,14 C2.44771525,14 2,14.4477153 2,15 C2,15.5128358 2.38604019,15.9355072 2.88337887,15.9932723 L3,16 L5,16 C5.55228475,16 6,15.5522847 6,15 C6,14.4477153 5.55228475,14 5,14 Z M9,9 L3,9 C2.44771525,9 2,9.44771525 2,10 C2,10.5128358 2.38604019,10.9355072 2.88337887,10.9932723 L3,11 L9,11 C9.55228475,11 10,10.5522847 10,10 C10,9.44771525 9.55228475,9 9,9 Z M7,3 C6.48716416,3 6.06449284,3.38604019 6.00672773,3.88337887 L6,4 L3,4 C2.44771525,4 2,4.44771525 2,5 C2,5.51283584 2.38604019,5.93550716 2.88337887,5.99327227 L3,6 L6,6 C6,6.55228475 6.44771525,7 7,7 C7.51283584,7 7.93550716,6.61395981 7.99327227,6.11662113 L8,6 L8,4 C8,3.44771525 7.55228475,3 7,3 Z M17,4 L11,4 C10.4477153,4 10,4.44771525 10,5 C10,5.51283584 10.3860402,5.93550716 10.8833789,5.99327227 L11,6 L17,6 C17.5522847,6 18,5.55228475 18,5 C18,4.44771525 17.5522847,4 17,4 Z M17,11 C17.5522847,11 18,10.5522847 18,10 C18,9.44771525 17.5522847,9 17,9 L14,9 L13.9932723,8.88337887 C13.9355072,8.38604019 13.5128358,8 13,8 C12.4477153,8 12,8.44771525 12,9 L12,9 L12,11 C12,11.5522847 12.4477153,12 13,12 C13.5522847,12 14,11.5522847 14,11 L14,11 L17,11 Z" id="Combined-Shape"></path>
            </g>
        </g>
    </g>
</svg>