<?xml version="1.0" encoding="UTF-8"?>
<svg width="20px" height="20px" viewBox="0 0 20 20" version="1.1" xmlns="http://www.w3.org/2000/svg" xmlns:xlink="http://www.w3.org/1999/xlink">
    <!-- Generator: sketchtool 57.1 (101010) - https://sketch.com -->
    <title>81E28630-1551-458B-AA8E-8836627BB41B</title>
    <desc>Created with sketchtool.</desc>
    <g id="Desktop-&amp;-Mobile" stroke="none" stroke-width="1" fill="none" fill-rule="evenodd">
        <g id="Icons-Kit" transform="translate(-487.000000, -178.000000)" fill="#FFFFFF">
            <g id="views" transform="translate(487.000000, 178.000000)">
                <path d="M10,0 C15.5228475,0 20,4.4771525 20,10 C20,15.5228475 15.5228475,20 10,20 C4.4771525,20 0,15.5228475 0,10 C0,4.4771525 4.4771525,0 10,0 Z M10,5 C7.52682193,5 5.05364385,6.34405038 2.58046578,9.03215114 L2.30568092,9.33637135 C1.96974083,9.71502857 1.96974108,10.2849979 2.30568148,10.6636549 C4.87045432,13.5545516 7.43522716,15 10,15 C12.4731781,15 14.9463561,13.6559496 17.4195342,10.9678489 L17.6943191,10.6636287 C18.0302592,10.2849714 18.0302589,9.71500206 17.6943185,9.33634512 C15.1295457,6.44544837 12.5647728,5 10,5 Z" id="Combined-Shape"></path>
                <circle id="Oval" cx="10" cy="10" r="2"></circle>
            </g>
        </g>
    </g>
</svg>