<?xml version="1.0" encoding="UTF-8"?>
<svg width="20px" height="20px" viewBox="0 0 20 20" version="1.1" xmlns="http://www.w3.org/2000/svg" xmlns:xlink="http://www.w3.org/1999/xlink">
    <!-- Generator: sketchtool 57.1 (101010) - https://sketch.com -->
    <title>AAFEC76C-EE6F-4527-805D-638D097CF96F</title>
    <desc>Created with sketchtool.</desc>
    <g id="Desktop-&amp;-Mobile" stroke="none" stroke-width="1" fill="none" fill-rule="evenodd">
        <g id="Icons-Kit" transform="translate(-311.000000, -178.000000)" fill="#FFFFFF">
            <g id="watchlist" transform="translate(311.000000, 178.000000)">
                <path d="M18,8 C19.1045695,8 20,8.8954305 20,10 L20,18 C20,19.1045695 19.1045695,20 18,20 L2,20 C0.8954305,20 1.3527075e-16,19.1045695 0,18 L0,10 C-1.3527075e-16,8.8954305 0.8954305,8 2,8 L18,8 Z M8.5,11.4021238 C8.25454011,11.4021238 8.05039163,11.578999 8.00805567,11.8122482 L8,11.9021238 L8,16.0978762 C8,16.191586 8.02633472,16.2834098 8.07600085,16.3628756 C8.20609433,16.5710252 8.46428264,16.6503991 8.68451559,16.5626781 L8.76499947,16.5218753 L12.1216014,14.4239992 C12.1859859,14.3837588 12.2403607,14.329384 12.280601,14.2649995 C12.4106945,14.0568499 12.3689032,13.7899887 12.1935462,13.630466 L12.1216014,13.5760008 L8.76499947,11.4781247 C8.68553367,11.4284585 8.59370986,11.4021238 8.5,11.4021238 Z M17,4 C17.5522847,4 18,4.44771525 18,5 L18,6 L2,6 L2,5 C2,4.44771525 2.44771525,4 3,4 L17,4 Z M15,0 C15.5522847,-1.01453063e-16 16,0.44771525 16,1 L16,2 L4,2 L4,1 C4,0.44771525 4.44771525,1.01453063e-16 5,0 L15,0 Z" id="Combined-Shape"></path>
            </g>
        </g>
    </g>
</svg>